<svg xmlns="http://www.w3.org/2000/svg" version="1.1" xmlns:xlink="http://www.w3.org/1999/xlink" width="53" height="32"><svg width="53" height="32" viewBox="0 0 53 32" fill="none" xmlns="http://www.w3.org/2000/svg">
<g clip-path="url(#clip0_2300_1232)">
<path d="M3.22326 14.3632H0V0.29514H9.38062V3.24558H3.22326V5.8641H8.78719V8.79615H3.22326V14.3641V14.3632Z" fill="black"></path>
<path d="M11.1153 2.75692C10.7845 2.46855 10.6201 2.08439 10.6201 1.60442C10.6201 1.12446 10.7845 0.737386 11.1153 0.443213C11.4451 0.148072 11.8505 0.000986099 12.3305 0.000986099C12.8105 0.000986099 13.2159 0.148072 13.5457 0.443213C13.8755 0.738353 14.0409 1.12542 14.0409 1.60442C14.0409 2.08342 13.8755 2.46855 13.5457 2.75692C13.215 3.04626 12.8105 3.19044 12.3305 3.19044C11.8505 3.19044 11.4451 3.04626 11.1153 2.75692ZM13.8424 14.3632H10.8176V3.90845H13.8424V14.3632Z" fill="black"></path>
<path d="M18.3797 14.3631H14.9769L18.3438 9.07188L14.959 3.90934H18.3797L20.2167 7.02525L22.1076 3.90934H25.6002L22.1256 9.07188L25.5822 14.3631H22.1256L20.2347 11.1737L18.3797 14.3631Z" fill="black"></path>
<path d="M30.0113 14.3632H26.7881V0.295157H31.974L34.2429 10.418L36.4928 0.295157H41.6967V14.3632H38.4735V2.93207L35.8087 14.3632H32.6761L30.0113 3.00561V14.3632Z" fill="black"></path>
<path d="M44.0339 17.9774V15.4517H45.2586C45.5468 15.4517 45.7868 15.4024 45.9787 15.3047C46.1705 15.206 46.3264 15.0153 46.4464 14.7328L46.5362 14.5112L42.917 3.90934H46.1582L48.085 11.3217L49.7415 3.90934H53.0007L49.3815 15.0279C49.0328 16.0972 48.5981 16.8558 48.0765 17.3048C47.5539 17.7529 46.8131 17.9774 45.853 17.9774H44.0349H44.0339Z" fill="black"></path>
<path d="M3.22326 31.7784H0V17.7104H3.22326V23.2784H8.44511V17.7104H11.6684V31.7784H8.44511V26.2288H3.22326V31.7784Z" fill="black"></path>
<path d="M14.3209 31.1794C13.6906 30.6326 13.376 29.8546 13.376 28.8473C13.376 27.7412 13.8022 26.8994 14.6545 26.3217C14.9786 26.1126 15.3358 25.9472 15.7261 25.8233C16.1164 25.7004 16.5633 25.5901 17.0679 25.4914L19.7148 25.0124C19.6789 24.4841 19.5409 24.0786 19.3009 23.7951C19.0731 23.5493 18.7301 23.4264 18.2747 23.4264C17.9146 23.4264 17.5905 23.5493 17.3023 23.7951C17.0141 24.0409 16.8345 24.3795 16.7618 24.8092H13.7549C13.8749 23.9731 14.1603 23.2793 14.6101 22.7258C15.0599 22.1723 15.6061 21.7639 16.2487 21.4997C16.8903 21.2356 17.5716 21.103 18.2926 21.103C18.9163 21.103 19.5022 21.1891 20.0483 21.3614C20.5945 21.5336 21.0661 21.792 21.462 22.1355C21.8579 22.48 22.1462 22.8855 22.3266 23.3528C22.5071 23.8202 22.6177 24.306 22.6602 24.8092C22.7018 25.3133 22.7235 25.983 22.7235 26.819V31.7784H19.6987V30.5059C19.5305 30.9113 19.2905 31.2249 18.9786 31.4465C18.4627 31.8151 17.7124 32 16.7278 32C15.7431 32 14.9541 31.7261 14.3238 31.1794H14.3209ZM18.7046 29.3998C19.1005 29.215 19.3708 28.9576 19.5144 28.6257C19.6581 28.2938 19.7422 27.8206 19.7667 27.2061L17.9118 27.5748C17.5754 27.6367 17.3146 27.7035 17.1284 27.778C16.9423 27.8516 16.7892 27.9503 16.6692 28.0732C16.4887 28.258 16.3989 28.4786 16.3989 28.737C16.3989 29.0447 16.5132 29.275 16.741 29.4289C16.9687 29.5827 17.2569 29.6592 17.6056 29.6592C17.9543 29.6592 18.3313 29.573 18.7037 29.4008L18.7046 29.3998Z" fill="black"></path>
<path d="M24.8887 20.1711C24.558 19.8828 24.3936 19.4986 24.3936 19.0186C24.3936 18.5387 24.558 18.1516 24.8887 17.8574C25.2185 17.5623 25.6239 17.4152 26.1039 17.4152C26.584 17.4152 26.9894 17.5623 27.3192 17.8574C27.6489 18.1526 27.8143 18.5396 27.8143 19.0186C27.8143 19.4976 27.6489 19.8828 27.3192 20.1711C26.9884 20.4605 26.584 20.6047 26.1039 20.6047C25.6239 20.6047 25.2185 20.4605 24.8887 20.1711ZM27.6159 31.7784H24.5911V21.3236H27.6159V31.7784Z" fill="black"></path>
<path d="M29.5947 31.7784V21.3237H32.6195V22.4481C32.9436 21.944 33.316 21.5937 33.7355 21.3972C34.156 21.2008 34.654 21.1021 35.2304 21.1021H35.6802V24.0525H35.1038C34.3356 24.0525 33.7591 24.2374 33.3755 24.606C33.1109 24.8644 32.9191 25.2147 32.7991 25.6569C32.679 26.0992 32.6186 26.6711 32.6186 27.3717V31.7784H29.5938H29.5947Z" fill="black"></path>
<path d="M36.8598 31.4833C36.5177 31.1398 36.3467 30.7275 36.3467 30.2476C36.3467 29.7676 36.5177 29.3776 36.8598 29.0399C37.2019 28.7022 37.6073 28.5328 38.075 28.5328C38.5191 28.5328 38.9056 28.7022 39.2364 29.0399C39.5662 29.3786 39.7315 29.7802 39.7315 30.2476C39.7315 30.7149 39.5699 31.1388 39.2449 31.4833C38.9208 31.8268 38.5305 31.999 38.075 31.999C37.6195 31.999 37.2019 31.8268 36.8598 31.4833Z" fill="black"></path>
<path d="M42.9083 24.4028C42.3498 24.0709 41.9085 23.619 41.5853 23.0481C41.2612 22.4762 41.0996 21.8462 41.0996 21.1582C41.0996 20.4702 41.2612 19.8402 41.5853 19.2683C41.9094 18.6964 42.3507 18.2445 42.9083 17.9136C43.4667 17.5817 44.0819 17.4162 44.7538 17.4162C45.4256 17.4162 46.0408 17.5817 46.5993 17.9136C47.1578 18.2455 47.599 18.6974 47.9222 19.2683C48.2463 19.8402 48.4079 20.4702 48.4079 21.1582C48.4079 21.8462 48.2463 22.4762 47.9222 23.0481C47.5981 23.6199 47.1568 24.0719 46.5993 24.4028C46.0408 24.7347 45.4256 24.9002 44.7538 24.9002C44.0819 24.9002 43.4667 24.7347 42.9083 24.4028ZM46.2487 23.8038C46.7051 23.5271 47.068 23.1555 47.3382 22.6881C47.6085 22.2207 47.7436 21.7107 47.7436 21.1582C47.7436 20.6056 47.6085 20.0947 47.3382 19.6273C47.068 19.1599 46.7051 18.7884 46.2487 18.5116C45.7923 18.2348 45.2943 18.0965 44.7547 18.0965C44.2151 18.0965 43.7162 18.2348 43.2607 18.5116C42.8043 18.7884 42.4415 19.1599 42.1712 19.6273C41.9009 20.0947 41.7658 20.6047 41.7658 21.1582C41.7658 21.7117 41.9009 22.2217 42.1712 22.6881C42.4415 23.1555 42.8043 23.5271 43.2607 23.8038C43.7171 24.0806 44.2151 24.2189 44.7547 24.2189C45.2943 24.2189 45.7932 24.0806 46.2487 23.8038ZM43.188 23.3335V18.9819H45.1866C45.5948 18.9819 45.9217 19.0893 46.1674 19.3041C46.4131 19.5189 46.5369 19.848 46.5369 20.2902C46.5369 20.8805 46.3271 21.2491 45.9066 21.3962L46.6626 23.3325H45.6005L44.9881 21.6546H44.1773V23.3325H43.187L43.188 23.3335ZM45.042 20.7711C45.3774 20.7711 45.5457 20.624 45.5457 20.3289C45.5457 20.1934 45.5003 20.086 45.4105 20.0067C45.3207 19.9273 45.197 19.8867 45.041 19.8867H44.1764V20.7721H45.041L45.042 20.7711Z" fill="black"></path>
</g>
<defs>
<clipPath id="SvgjsClipPath1134">
<rect width="53" height="32" fill="white"></rect>
</clipPath>
</defs>
</svg><style>@media (prefers-color-scheme: light) { :root { filter: none; } }
@media (prefers-color-scheme: dark) { :root { filter: none; } }
</style></svg>